@startuml governance invitation linkages

package Legend <<Rectangle>> #EEEEEE {

    class ContractA {
        constract terms are documented above the line
        --
          accessiblePublicState
        + publicMethod()
        # methodShared()
        - closelyHeldMethod()
    }

    interface InvitationB {
        verifiable invitation fields are above the line
        --
        offerResults - below the line
    }

    note "Contracts have a 'C' marker.\nInvitations have an 'I'.\nblue arrows show verifiable connections.\ncreator-created links are labelled" as NC
}

package "Registrar Vat" <<Rectangle>>  {
    class Registrar {
        terms: committeeSize, committeeName
        --
        Questions[]
        +getQuestionSubscription()
        +getOpenQuestions()
        +getQuestion(questionHandle)
        #getVoterInvitation(): (via some mechanism)
        -getQuestionPoserInvitation()
        -addQuestion(voteCounterInstall, question, details)
    }

    note "produces VoterInvitations.\nPolymorphic over VoteCounters.\nquestions are enumerable." as N1
    Registrar .. N1

    interface QuestionPoserInvitation {
        Registrar
        --
        addQuestion()
    }

    interface VoterInvitation {
        Registrar
        --
        getVoterFacet()
    }

    object VoterFacet {
        ---
        castBallotFor(QuestionoHandle, ...positions)
    }
    note "instances held by\nindividual voters" as NVF
    VoterFacet . NVF

    Registrar --> VoterFacet : creates >
}

object QuestionDetails {
    Method { UNRANKED | ORDER }
    Type { ParamChange | Election | Survey }
    --
    issue, positions, tieOutcome, maxChoices
    quorumRule
    closingRule: { timer, deadline }
    questionHandle
    counterInstance
}

note "QuestionDetails is a widely accessible record.\nverifiable copies are obtained from a Registrar" as N3
QuestionDetails .. N3

package "VoteCounter Vat" <<Rectangle>>  {
    class VoteCounter {
        terms\n   {questionSpec, quorum, closingRule, tieOutcome}
        --
        +getDetails()
        +getOutcome(): Promise
        +getStats()
        +getQuestion()
        #countVotes()
        -submitVote()
        -getCreatorFacet()
    }

    object VoteCap {
        ---
        submitVote(VoterHandle, ...positions)
    }
    note top: VoteCap is passed to and\ntightly held by Registrar.

    note "unaware of voter registration.\n Only Registrar hands out voterFacets" as N2
    VoteCounter .. N2

    VoteCounter --> VoteCap : creates >
}

class ElectionManager {
    Registrar
    addQuestion()
}
note top : ElectionManager is responsible\n  for letting an appropriate\n  party call addQuestion()

ElectionManager -.[#blue]-|> Registrar : verifiable

Registrar *. VoterInvitation
Registrar *. QuestionPoserInvitation
VoterInvitation -> VoterFacet
Registrar -> QuestionDetails : creates >
VoteCounter <|-.[#blue]-|> QuestionDetails : verifiable

VoterFacet --|> VoteCap : encapsulates

@enduml